
<?xml version="1.0" encoding="utf-8"?>
<!-- Generator: Adobe Illustrator 21.0.0, SVG Export Plug-In . SVG Version: 6.00 Build 0)  -->
<svg version="1.1" id="Layer_1" xmlns="http://www.w3.org/2000/svg" xmlns:xlink="http://www.w3.org/1999/xlink" x="0px" y="0px"
	 viewBox="0 0 1000 267" style="enable-background:new 0 0 1000 267;" xml:space="preserve">
<style type="text/css">
	.st0{fill:#21B9BE;}
	.st1{fill:#04878F;}
</style>
<path class="st0" d="M544.1,146.1V15.6c0-8.5,6.9-15.3,15.3-15.3l0,0c8.5,0,15.3,6.9,15.3,15.3v129.8c0,44.6,23.7,72.7,68.7,72.7
	c44.9,0,69-28.1,69-72.7V15.6c0-8.5,6.9-15.3,15.3-15.3l0,0c8.5,0,15.3,6.9,15.3,15.3v130.2c0,60.6-33.6,99.3-99.7,99.3
	C577.7,245.1,544.1,206,544.1,146.1z M109.9,0.2L109.9,0.2c-11.4,0-21.7,6.9-26,17.5L1.2,223c-4.3,10.6,3.5,22.1,14.9,22.1l0,0
	c6.6,0,12.6-4.1,15-10.3l75.8-196.1c1-2.6,4.6-2.6,5.6,0l75.8,196.1c2.4,6.2,8.4,10.3,15,10.3h0c11.4,0,19.2-11.5,14.9-22.1
	L135.9,17.8C131.6,7.2,121.3,0.2,109.9,0.2z M890.4,0.2L890.4,0.2c-11.4,0-21.7,6.9-26,17.5L781.7,223c-4.3,10.6,3.5,22.1,14.9,22.1
	l0,0c6.6,0,12.6-4.1,15-10.3l75.8-196.1c1-2.6,4.6-2.6,5.6,0l75.8,196.1c2.4,6.2,8.4,10.3,15,10.3h0c11.4,0,19.2-11.5,14.9-22.1
	L916.4,17.8C912.1,7.2,901.8,0.2,890.4,0.2z"/>
<path class="st1" d="M494.3,122.7c0,48.9-28.7,91.2-70.2,110.8c-10.1,4.8-21.6-2.9-21.6-14.1v0c0-6,3.5-11.3,8.9-13.9
	c30.9-14.8,52.3-46.3,52.3-82.8c0-54.1-47.1-97.5-102.4-91.2c-42.9,4.8-77.1,40.1-80.9,83.1c-3.5,39.9,18.7,75,51.9,90.9
	c5.4,2.6,9,7.9,9,14v0c0,11.2-11.6,18.8-21.8,14c-45.8-21.7-75.9-70.9-69.1-126.3C257.3,51.5,302.3,7.1,358,1
	C431.8-7.2,494.3,50.5,494.3,122.7z M387.2,256.8V154.3c0-5.5-4.5-10-10-10h-10.6c-5.5,0-10,4.5-10,10v102.4c0,5.5,4.5,10,10,10
	h10.6C382.7,266.8,387.2,262.3,387.2,256.8z"/>
</svg>
